<?xml version="1.0" encoding="utf-8"?>
<!-- Svg Vector Icons : http://www.onlinewebfonts.com/icon -->
<!DOCTYPE svg PUBLIC "-//W3C//DTD SVG 1.1//EN" "http://www.w3.org/Graphics/SVG/1.1/DTD/svg11.dtd">
<svg version="1.1" xmlns="http://www.w3.org/2000/svg" xmlns:xlink="http://www.w3.org/1999/xlink" x="0px" y="0px" viewBox="0 0 1000 1000" enable-background="new 0 0 1000 1000" xml:space="preserve">
<metadata> Svg Vector Icons : http://www.onlinewebfonts.com/icon </metadata>
<g><g transform="translate(0.000000,511.000000) scale(0.100000,-0.100000)"><path d="M3507.6,4974.2c-262.3-71.5-561.5-281.9-730.7-509.5c-203.8-273.2-303.5-555-314.4-882.4c-4.3-193-8.7-203.8-78.1-284c-54.2-62.9-106.2-93.2-227.6-130.1c-414.1-130.1-815.2-544.2-975.6-1006c-140.9-403.3-147.4-904.1-19.5-1268.3c23.9-65,26-110.6,13-162.6c-39-134.4-60.7-459.6-43.4-635.3l15.2-173.5l-95.4-145.3C656.5-825.5,537.3-1599.5,732.4-2321.5c208.1-782.7,797.9-1404.9,1500.3-1584.9c88.9-21.7,195.1-41.2,234.2-41.2c67.2,0,75.9-10.8,164.8-177.8c169.1-325.2,479.1-576.7,802.2-646.1c156.1-34.7,609.2-17.3,787,30.4c290.5,80.2,578.9,258,709,437.9l67.2,93.3l84.6-106.3c147.4-186.4,409.8-344.7,700.3-424.9c201.6-54.2,665.6-67.2,826-19.5c325.2,93.2,602.8,323.1,765.4,637.4c84.5,164.8,95.4,175.6,162.6,175.6c186.4,0,548.5,132.2,793.5,290.5c1042.9,674.3,1352.9,2267.8,656.9,3367.1L8865-99.2l4.3,292.7c2.2,186.5-6.5,353.4-28.2,457.5c-30.3,153.9-28.2,175.6,8.7,294.9c195.1,626.6,36.9,1357.2-392.4,1816.9c-173.5,184.3-383.8,325.2-602.8,401.1c-143.1,47.7-195.1,78.1-247.1,140.9c-58.5,73.7-65,93.2-71.6,277.5c-13,401.1-158.3,743.7-438,1025.5c-407.6,414.1-1001.7,518.2-1511.2,266.7c-182.1-88.9-362.1-234.1-483.5-390.3l-99.7-132.3l-65,84.6c-197.3,253.7-500.8,461.8-784.9,535.5C3991,5013.3,3657.2,5015.4,3507.6,4974.2z M4049.6,4542.8c145.3-39,312.2-130.1,396.8-216.8l65-67.2l-166.9-86.7c-333.9-173.4-583.2-490-667.8-847.7c-82.4-351.2,47.7-1029.9,234.2-1205.5c110.6-106.2,277.5-62.9,340.4,86.7c23.8,56.4,17.3,91.1-49.9,290.5c-180,524.7-138.8,873.7,136.6,1129.6c99.7,93.2,364.2,247.2,385.9,223.3c39-39,49.9-362.1,49.9-1795.2V432h-54.2c-93.2,0-292.7,88.9-368.6,164.8c-151.8,149.6-147.4,375.1,10.8,637.4c127.9,212.5,108.4,357.7-54.2,411.9c-145.3,47.7-253.7-34.7-379.4-281.9c-134.4-268.8-162.6-524.7-84.6-765.3C3952,269.4,4236,54.8,4650.1-12.4l82.4-13l-6.5-240.7l-6.5-242.8l-108.4-23.9c-232-54.2-385.9-190.8-607.1-546.4c-195.1-310-273.2-405.4-385.9-459.6c-143.1-69.4-277.5-60.7-372.9,21.7c-91.1,80.2-169.1,208.1-208.1,340.4c-54.2,186.5-229.8,255.8-362.1,145.3c-88.9-73.7-101.9-147.4-52-292.7c132.3-383.8,344.7-609.2,641.8-687.3c121.4-32.5,160.4-34.7,294.9-10.8c84.6,15.2,203.8,52.1,262.3,82.4c206,101.9,286.2,197.3,613.6,709c104.1,160.4,216.8,275.4,275.4,275.4c8.7,0,19.5-134.4,28.2-297c23.9-524.7,41.2-1285.7,28.2-1285.7c-6.5,0-86.7,39-175.6,88.9c-359.9,192.9-639.6,197.3-895.4,13c-104.1-73.7-234.2-251.5-266.7-359.9c-39-134.4,67.2-284,199.5-284c93.2,0,169.1,45.5,212.5,130.1c52,99.7,138.8,186.5,208.1,203.8c134.4,34.7,442.3-119.2,633.1-314.4l91.1-93.3v-195.1c-2.2-570.2-238.5-880.2-745.8-977.8c-611.4-117.1-962.6,110.6-1118.7,722l-23.9,91.1h-199.5c-245,0-403.3,39-635.3,151.8c-281.9,136.6-561.5,422.8-732.8,748l-56.4,108.4l153.9,15.2c323,28.2,602.7,249.3,778.3,613.6c99.7,203.8,173.4,507.3,173.4,717.6c0,258,119.2,455.3,336.1,563.7c101.9,47.7,140.9,56.4,260.2,47.7c119.2-6.5,149.6-17.3,206-71.5c34.7-32.5,75.9-95.4,88.9-138.7c69.4-216.8,299.2-262.4,409.8-84.6c54.2,84.6,43.4,171.3-34.7,331.7C3384-8.1,2685.8,48.3,2232.7-394c-188.6-184.3-275.3-381.6-301.4-685.1c-28.2-323-54.2-431.4-136.6-604.9c-127.9-264.5-338.2-407.6-529-357.7c-169.1,45.5-166.9,43.3-164.8,440.1c2.2,288.3,10.8,385.9,47.7,526.8c60.7,225.5,234.2,572.4,368.6,737.1l108.4,132.3l-32.5,160.4c-39,203.8-28.2,546.4,26,732.8l39,136.6l-56.4,166.9c-151.8,438-108.4,899.8,117.1,1274.9c158.3,262.3,474.8,487.8,728.5,520.3c110.6,13,123.6,21.7,201.6,125.7c45.5,60.7,125.7,153.9,179.9,206l99.7,95.4l-13,251.5c-10.8,221.2-6.5,268.8,34.7,392.4c86.7,255.8,299.2,513.9,522.5,628.8C3637.6,4573.1,3856.6,4594.8,4049.6,4542.8z M6514.7,4490.7c251.5-125.8,472.6-398.9,548.5-685.1c34.7-125.8,39-372.9,10.8-496.5c-19.5-80.2-17.3-84.6,95.4-190.8c62.9-58.5,143.1-149.6,175.6-199.5c80.2-114.9,80.2-114.9,203.8-130.1c292.7-34.7,635.2-305.7,787-622.3c117.1-247.2,151.8-418.4,140.9-726.3c-8.7-214.6-19.5-288.3-69.4-422.8c-71.5-195.1-69.4-173.4-23.8-336.1c54.2-195.1,65-531.2,23.8-724.1l-32.5-158.3L8494.2-355c145.3-186.4,294.9-485.7,355.6-719.8c49.9-188.6,80.2-628.8,56.4-797.9c-17.3-110.6-47.7-138.8-186.4-169.1c-240.7-56.4-520.4,221.1-604.9,598.4c-13,60.7-32.5,210.3-43.4,336.1c-10.8,134.4-36.8,275.4-65,346.9C7811.2-250.9,7254,24.4,6757.5-144.7c-232-80.2-492.2-438-457.5-628.8c19.5-101.9,106.2-171.3,216.8-171.3c114.9,0,156.1,32.5,219,173.5c26,60.7,80.2,136.6,117.1,169.1c60.7,49.9,91,58.5,203.8,58.5c225.5-2.2,405.4-112.7,507.3-312.2c43.4-86.7,58.5-158.3,73.7-349.1c21.7-292.7,60.7-446.6,169.1-674.3c169.1-355.6,459.6-583.2,782.7-611.4l153.9-15.2l-69.4-134.4c-284-550.7-845.6-910.6-1383.3-891.1l-184.3,6.5l-34.7-143.1c-52.1-206-125.8-340.4-253.7-470.5c-173.4-175.6-268.8-210.3-570.2-210.3c-505.2,2.2-810.9,175.6-956.1,546.4c-41.2,108.4-49.9,175.6-58.5,485.6l-8.7,359.9l127.9,80.2c147.4,93.2,314.4,147.4,394.6,130.1c73.7-17.3,169.1-108.4,221.2-208.2c49.9-95.4,97.6-125.7,203.8-125.7c112.7,0,206,95.4,206,210.3c0,162.6-173.4,392.4-379.4,500.8c-95.4,52-132.3,58.5-303.5,56.4c-160.4,0-219-10.8-329.6-56.4l-136.6-58.5v665.6l2.2,665.6l54.2-65c30.3-34.7,117.1-158.3,195.1-273.2c234.2-351.2,453.1-524.7,735-583.2c424.9-88.9,821.7,201.6,973.5,711.1c28.2,101.9,30.3,125.8,4.3,188.6c-67.2,158.3-229.8,188.6-351.2,67.2c-41.2-41.2-73.7-88.9-73.7-108.4c0-69.4-127.9-288.4-208.1-357.7c-75.9-67.2-88.9-71.6-212.5-62.9c-188.6,10.8-301.3,93.2-459.6,338.2c-219,333.9-234.2,357.7-331.7,466.1c-54.2,58.5-149.6,134.4-212.5,171.3l-117.1,65l6.5,271l6.5,271l132.3,47.7c190.8,69.4,310,145.3,429.3,271c162.6,175.6,197.3,273.2,197.3,544.2c-2.2,260.2-41.2,394.6-177.8,609.2c-101.9,160.4-192.9,210.3-310,173.4c-173.4-52-197.3-201.6-65-414.1c184.3-301.4,158.3-570.2-73.7-704.6c-52-30.3-104.1-54.2-117.1-54.2c-32.5,0-36.9,3224-6.5,3271.7c17.3,26,34.7,21.7,108.4-30.4c370.7-255.8,448.8-637.4,249.3-1216.3c-84.6-249.3-82.4-303.5,17.3-388.1c140.9-119.2,294.9-43.4,383.8,186.5c299.2,765.3,140.9,1435.3-422.8,1799.5c-75.9,49.9-138.8,97.6-138.8,106.2c0,34.7,216.8,216.8,323,268.8c153.9,80.2,247.2,99.7,440.1,91.1C6343.4,4560.1,6402,4544.9,6514.7,4490.7z"/><path d="M2603.5,2287.9c-169.1-58.5-470.5-249.3-613.6-385.9c-78.1-75.9-99.7-112.7-99.7-166.9c0-134.4,95.4-240.7,219-240.7c58.5,0,106.2,26,281.9,162.6c288.4,223.3,516,297,633.1,206c95.4-75.9,132.3-164.8,99.7-242.8c-58.5-140.9-431.5-359.9-821.7-483.5c-206-62.9-275.4-114.9-294.9-216.8c-15.2-80.2,34.7-193,97.6-227.7c112.7-58.5,431.5,26,815.2,216.8c477,238.5,685.1,500.8,654.8,828.2c-21.7,234.2-223.3,494.3-442.3,568C2985,2355.2,2774.7,2348.6,2603.5,2287.9z"/><path d="M3459.9-3557.3c-119.2-47.7-151.8-206-62.9-292.7c49.9-52,60.7-54.2,385.9-54.2c305.7,0,340.4,4.3,392.4,45.5c41.2,32.5,56.4,65,56.4,117.1c0,177.8-58.5,206-438,203.8C3635.5-3537.8,3483.7-3546.4,3459.9-3557.3z"/><path d="M6861.6,2305.3c-134.4-49.9-297-206-372.9-359.9c-114.9-227.6-84.5-453.1,84.6-667.8c151.8-190.8,520.3-407.6,923.6-542c303.5-99.7,418.5-86.7,477,58.5c39,91.1,23.9,180-41.2,240.6c-26,23.9-151.8,78.1-279.7,119.2c-481.3,160.4-797.9,375.1-797.9,544.2c0,67.2,158.3,208.1,236.3,208.1c140.9,0,253.7-60.7,676.4-362.1c158.3-112.7,344.7-8.7,344.7,193c0,52-21.7,88.9-95.4,160.4c-130.1,123.6-329.5,255.8-526.8,351.2c-145.3,67.2-190.8,78-351.2,84.6C7011.2,2337.8,6924.5,2329.1,6861.6,2305.3z"/><path d="M5673.5-3559.4c-71.5-41.2-97.6-88.9-97.6-173.5c0-62.9,13-91.1,56.4-125.8c52-41.2,86.7-45.5,392.4-45.5c325.2,0,336.1,2.2,385.9,54.2c69.4,67.2,69.4,162.6,2.2,242.8l-52,60.7l-323.1,6.5C5829.6-3537.8,5701.7-3544.3,5673.5-3559.4z"/></g></g>
</svg>