<?xml version="1.0" encoding="utf-8"?>
<!-- Svg Vector Icons : http://www.onlinewebfonts.com/icon -->
<!DOCTYPE svg PUBLIC "-//W3C//DTD SVG 1.1//EN" "http://www.w3.org/Graphics/SVG/1.1/DTD/svg11.dtd">
<svg version="1.1" xmlns="http://www.w3.org/2000/svg" xmlns:xlink="http://www.w3.org/1999/xlink" x="0px" y="0px" viewBox="0 0 1000 1000" enable-background="new 0 0 1000 1000" xml:space="preserve">
<metadata> Svg Vector Icons : http://www.onlinewebfonts.com/icon </metadata>
<g><g><path d="M522.8,272.3c-1.1,2.5-1.2,5.4-0.2,7.9c1,2.5,2.9,4.6,5.5,5.7c36.6,16,68,39.9,93.4,71.1c20.2,24.6,35.2,52.3,44.7,82.4c1.4,4.3,5.3,7.2,9.9,7.2c1.1,0,2.1-0.2,3.2-0.5c1.2-0.4,2.4-1,3.4-1.8c3.3-2.7,4.6-7.1,3.3-11.2c-10.3-32.5-26.6-62.5-48.4-89.2c-27.5-33.7-61.6-59.6-101.2-76.9C531.3,264.7,524.9,267.2,522.8,272.3z"/><path d="M542.9,152.1c70.6,22.4,132.7,64.7,179.7,122.3c43.6,53.5,72,117.6,81.9,185.5c0.7,5.1,5.1,8.8,10.3,8.8c0.5,0,1,0,1.5-0.1c1.9-0.3,3.6-1.1,5.1-2.3c2.8-2.3,4.2-5.9,3.6-9.5c-10.5-71.6-40.3-139.2-86.4-195.6C689,200.6,623.5,156,549.1,132.5c-5.4-1.7-11.3,1.4-13,6.7c-0.8,2.6-0.6,5.4,0.7,7.9C538.1,149.5,540.2,151.4,542.9,152.1z"/><path d="M933.6,472.6c0.4,0,0.7,0,1.1-0.1c2-0.2,3.9-1,5.4-2.3c2.7-2.2,4.1-5.6,3.8-9.1c-10.5-100.7-50-195.4-114.3-274.1C756.9,97.9,659.5,36.8,547.8,10.3c-5.4-1.3-11.1,2.2-12.4,7.7c-0.7,2.7-0.2,5.5,1.2,7.8c1.4,2.4,3.7,4,6.4,4.7c107.2,25.5,200.7,84.1,270.6,169.7c61.7,75.5,99.6,166.6,109.7,263.2C923.9,468.6,928.3,472.6,933.6,472.6z"/><path d="M56.4,985.9c-0.1-1.4-0.4-2.7-0.4-4.1v8.2C56,988.6,56.4,987.3,56.4,985.9z"/><path d="M179,329c0.2-6.5-4.9-12-11.4-12.3c-6.3-0.9-12.1,4.9-12.3,11.4C155,335,150.5,498,268.8,610.3c2.3,2.2,5.2,3.3,8.2,3.3c3.1,0,6.3-1.3,8.6-3.7c4.5-4.7,4.3-12.3-0.5-16.8C174.7,488.4,178.9,330.6,179,329z"/><path d="M816.5,828.3c18.6-7.4,30.2-21,31.9-37.3c1.7-16.8-7.4-33-24.9-44.5c-56.1-36.8-164.2-111.5-264.7-201.7c13.1-17.9,21-40,21-63.9c0-59.8-48.5-108.3-108.3-108.3c-22.5,0-43.3,6.9-60.6,18.6C324.5,289.2,249.7,182,212.5,126.5c-10.7-16-26.1-25.2-42.2-25.2c-17.9,0-33.4,10.9-42.5,29.8c-33.1,68.6-49.9,142.1-49.9,218.4c0,170.1,85.4,321.3,216.8,415.7c-2.1,4.3-3.5,9.3-3.5,15.7v113.8c0,3.3-2.7,5.9-5.9,5.9h-83c-19.8,0-35.2,18.6-35.2,42.3c0,23.7,15.5,42.3,35.2,42.3h341.1c19.8,0,35.3-18.6,35.3-42.3c0-23.7-15.5-42.3-35.3-42.3h-83c-3.3,0-5.9-2.6-5.9-5.9v-47.5c0-1.2-0.2-2.4-0.3-3.5c50.3,15.2,103.7,23.3,159.1,23.3C683.6,866.9,752,853.9,816.5,828.3z M460.4,936.1h81c0.7,1.1,1.6,3.4,1.6,6.7c0,3.3-0.9,5.6-1.6,6.7H204.3c-0.7-1.1-1.6-3.4-1.6-6.7c0-3.5,0.9-5.7,1.6-6.7h81c22.9,0,41.6-18.6,41.6-41.6V795c18.7,13.1,46.1,28.7,81.7,39.5c5.3,1.6,10.3,7.7,10.3,12.6v47.5C418.8,917.5,437.5,936.1,460.4,936.1z M119.5,349.4c0-70,15.4-137.4,45.8-200.4c2.4-4.8,4.6-6.2,5.1-6.3c0.8,0,3.9,1.3,7.7,6.8c38.5,57.5,116.6,169.6,206.5,274.9L526,571.3c104,94,216.7,171.8,274.7,209.9c4.2,2.7,5.8,5.2,6.5,4.8c-0.6,0.6-2.3,2.2-6.1,3.6c-59.6,23.7-122.8,35.6-187.9,35.6C341,825.3,119.5,611.8,119.5,349.4z"/></g><g></g><g></g><g></g><g></g><g></g><g></g><g></g><g></g><g></g><g></g><g></g><g></g><g></g><g></g><g></g></g>
</svg>